<?xml version="1.0" encoding="UTF-8"?> <svg xmlns="http://www.w3.org/2000/svg" width="311pt" height="116pt" viewBox="0 0 311 116" version="1.1"><g id="#f4f4f4ff"><path fill="#f4f4f4" opacity="1.00" d=" M 0.00 13.50 C 2.78 13.51 5.57 13.49 8.35 13.49 C 21.16 24.56 33.96 35.65 46.75 46.73 C 46.74 35.66 46.75 24.58 46.75 13.50 C 49.08 13.50 51.41 13.50 53.75 13.50 C 53.75 27.17 53.75 40.83 53.75 54.50 C 50.91 54.49 48.08 54.50 45.24 54.52 C 32.36 43.50 19.59 32.36 6.76 21.28 C 6.73 32.35 6.75 43.43 6.75 54.50 C 4.50 54.50 2.25 54.50 0.00 54.50 L 0.00 13.50 Z"></path><path fill="#f4f4f4" opacity="1.00" d=" M 57.50 54.50 C 57.50 40.83 57.50 27.17 57.50 13.50 C 69.70 13.52 81.90 13.46 94.10 13.53 C 98.34 13.58 103.08 14.77 105.59 18.48 C 108.97 23.15 107.72 30.43 102.60 33.31 C 110.19 35.84 111.58 47.84 104.84 52.04 C 101.29 54.15 97.03 54.35 93.01 54.50 C 81.17 54.50 69.34 54.50 57.50 54.50 M 64.50 20.00 C 64.50 23.50 64.50 27.00 64.50 30.50 C 74.32 30.50 84.15 30.49 93.97 30.51 C 97.10 30.79 100.83 28.38 100.53 24.93 C 100.76 22.03 97.84 19.87 95.13 20.02 C 84.92 19.96 74.71 20.02 64.50 20.00 M 64.50 48.00 C 74.36 48.01 84.22 47.99 94.08 48.01 C 96.45 48.05 99.15 47.74 100.81 45.84 C 102.65 43.80 102.19 40.44 100.40 38.51 C 98.41 36.82 95.62 36.95 93.17 36.75 C 83.61 36.73 74.06 36.76 64.50 36.75 C 64.50 40.50 64.50 44.25 64.50 48.00 Z"></path><path fill="#f4f4f4" opacity="1.00" d=" M 120.18 19.34 C 127.60 12.25 140.43 12.52 147.79 19.57 C 147.30 19.95 146.31 20.70 145.82 21.08 C 142.32 18.76 138.49 16.54 134.13 16.72 C 124.74 16.27 116.07 24.52 115.98 33.90 C 115.39 43.62 124.15 52.82 133.95 52.29 C 138.38 52.52 142.49 50.50 145.88 47.82 C 146.34 48.26 147.27 49.14 147.73 49.57 C 143.61 53.21 138.12 55.29 132.59 54.83 C 124.03 54.67 116.19 48.15 114.12 39.91 C 112.18 32.62 114.39 24.29 120.18 19.34 Z"></path><path fill="#f4f4f4" opacity="1.00" d=" M 258.86 15.57 C 266.03 12.73 274.64 14.21 280.41 19.37 C 279.97 19.85 279.09 20.81 278.65 21.29 C 275.33 18.73 271.42 16.67 267.13 16.72 C 257.62 16.13 248.74 24.48 248.73 34.00 C 248.10 43.83 257.17 53.00 267.03 52.29 C 271.40 52.46 275.38 50.36 278.73 47.74 C 279.15 48.24 279.99 49.25 280.41 49.76 C 275.79 53.55 269.79 55.59 263.81 54.73 C 254.19 53.76 246.04 44.82 246.23 35.09 C 245.70 26.76 251.15 18.62 258.86 15.57 Z"></path><path fill="#f4f4f4" opacity="1.00" d=" M 153.25 14.75 C 153.88 14.75 155.12 14.75 155.75 14.75 C 155.75 20.92 155.75 27.09 155.75 33.25 C 162.41 33.25 169.08 33.25 175.75 33.25 C 175.75 27.08 175.75 20.92 175.75 14.75 C 176.38 14.75 177.63 14.75 178.25 14.75 C 178.25 28.00 178.25 41.25 178.25 54.50 C 177.41 54.50 176.58 54.50 175.75 54.50 C 175.75 48.25 175.75 42.00 175.75 35.75 C 169.08 35.75 162.41 35.75 155.75 35.75 C 155.74 42.00 155.75 48.25 155.74 54.50 C 155.12 54.50 153.88 54.50 153.25 54.50 C 153.25 41.25 153.25 28.00 153.25 14.75 Z"></path><path fill="#f4f4f4" opacity="1.00" d=" M 185.25 14.75 C 185.88 14.75 187.12 14.75 187.75 14.75 C 187.77 23.82 187.70 32.89 187.77 41.95 C 187.74 47.37 192.64 52.19 198.02 52.28 C 203.55 52.55 208.81 47.67 208.75 42.09 C 208.77 32.98 208.74 23.86 208.75 14.75 C 209.37 14.75 210.63 14.75 211.25 14.75 C 211.25 23.82 211.24 32.89 211.26 41.96 C 211.54 48.52 205.76 54.48 199.26 54.74 C 192.32 55.53 185.46 49.65 185.30 42.65 C 185.18 33.35 185.29 24.05 185.25 14.75 Z"></path><path fill="#f4f4f4" opacity="1.00" d=" M 219.00 14.75 C 224.61 15.17 231.08 13.30 235.84 17.21 C 241.30 21.10 242.65 29.37 238.88 34.87 C 237.24 37.70 234.26 39.24 231.37 40.49 C 234.50 45.09 237.46 49.79 240.47 54.46 C 239.70 54.47 238.17 54.50 237.40 54.51 C 234.43 49.94 231.49 45.35 228.56 40.77 C 226.20 40.76 223.85 40.73 221.50 40.74 C 221.50 45.33 221.50 49.91 221.50 54.50 C 220.88 54.50 219.63 54.50 219.00 54.50 C 219.00 41.25 219.00 28.00 219.00 14.75 M 221.50 17.25 C 221.50 24.25 221.50 31.25 221.50 38.25 C 226.14 38.25 231.64 38.96 235.19 35.24 C 239.88 31.15 239.46 23.00 234.40 19.39 C 230.78 16.34 225.83 17.41 221.50 17.25 Z"></path><path fill="#f4f4f4" opacity="1.00" d=" M 286.00 14.75 C 286.63 14.75 287.88 14.75 288.50 14.75 C 288.50 20.92 288.50 27.09 288.50 33.25 C 295.17 33.25 301.83 33.25 308.50 33.25 C 308.49 27.09 308.50 20.93 308.50 14.77 C 309.12 14.76 310.37 14.74 311.00 14.73 L 311.00 54.50 C 310.37 54.50 309.12 54.50 308.50 54.50 C 308.50 48.25 308.50 42.00 308.50 35.75 C 301.83 35.75 295.17 35.75 288.50 35.75 C 288.50 42.00 288.50 48.25 288.50 54.50 C 287.88 54.50 286.63 54.50 286.00 54.50 C 286.00 41.25 286.00 28.00 286.00 14.75 Z"></path><path fill="#f4f4f4" opacity="1.00" d=" M 0.00 72.50 C 103.67 72.50 207.33 72.50 311.00 72.50 L 311.00 102.50 C 207.33 102.50 103.67 102.50 0.00 102.50 L 0.00 72.50 M 9.51 76.83 C 9.49 83.72 9.51 90.61 9.50 97.50 L 11.75 97.50 C 11.66 91.56 12.00 85.61 11.44 79.68 C 14.62 85.08 17.90 90.42 21.25 95.71 C 21.93 97.14 23.08 97.80 24.71 97.70 C 24.80 90.80 24.73 83.90 24.75 77.00 C 24.19 77.00 23.07 77.00 22.51 77.00 C 22.45 82.90 22.48 88.81 22.87 94.70 C 19.74 88.60 16.01 82.79 12.12 77.16 C 11.47 77.08 10.16 76.91 9.51 76.83 M 34.75 77.00 C 34.75 83.83 34.75 90.67 34.75 97.50 C 38.58 97.50 42.42 97.50 46.25 97.50 L 46.25 95.50 C 43.25 95.50 40.25 95.50 37.25 95.50 C 37.26 92.92 37.25 90.33 37.25 87.75 C 39.92 87.76 42.58 87.74 45.25 87.75 C 45.25 87.08 45.25 86.41 45.25 85.75 C 42.59 85.75 39.92 85.74 37.25 85.75 C 37.25 83.50 37.25 81.25 37.25 79.00 C 40.09 79.01 42.93 78.99 45.77 78.99 C 45.77 78.49 45.77 77.51 45.77 77.01 C 42.09 76.99 38.42 77.00 34.75 77.00 M 53.42 76.84 C 55.09 83.81 56.91 90.74 58.66 97.68 C 59.27 97.59 60.49 97.42 61.10 97.33 C 63.01 91.51 64.45 85.53 65.95 79.59 C 67.05 85.62 68.65 91.55 70.05 97.51 C 70.71 97.51 72.01 97.50 72.66 97.49 C 74.58 90.60 76.56 83.73 78.48 76.84 C 77.88 76.92 76.68 77.07 76.08 77.15 C 74.29 83.11 72.78 89.16 71.48 95.24 C 70.35 89.11 68.74 83.08 67.34 77.01 C 66.69 77.01 65.39 76.99 64.74 76.99 C 63.14 82.97 61.52 88.96 60.09 94.99 C 58.69 89.04 57.55 83.01 55.87 77.13 C 55.25 77.06 54.03 76.92 53.42 76.84 M 97.76 77.16 C 97.73 83.95 97.76 90.73 97.74 97.51 C 101.94 97.83 107.68 98.49 110.17 94.22 C 111.94 91.07 109.71 87.47 106.53 86.47 C 109.01 85.28 111.15 82.28 109.39 79.59 C 106.80 75.85 101.63 76.74 97.76 77.16 M 119.50 77.00 C 119.50 83.83 119.50 90.67 119.50 97.50 C 123.33 97.50 127.17 97.50 131.00 97.50 C 131.00 97.00 131.00 96.00 131.00 95.50 C 128.00 95.50 125.00 95.50 122.00 95.50 C 122.00 92.92 122.00 90.33 122.00 87.75 C 124.67 87.76 127.33 87.74 130.00 87.75 C 130.00 87.25 130.00 86.25 130.00 85.74 C 127.33 85.75 124.67 85.74 122.00 85.75 C 122.00 83.50 122.00 81.25 122.00 79.00 C 124.83 79.01 127.67 78.99 130.50 79.00 C 130.50 78.50 130.50 77.50 130.50 77.00 C 126.83 77.00 123.17 77.00 119.50 77.00 M 140.68 80.74 C 137.01 85.45 137.93 93.66 143.50 96.51 C 147.14 98.51 151.43 97.73 155.26 96.75 C 155.25 93.42 155.25 90.08 155.25 86.75 C 153.08 86.74 150.92 86.75 148.75 86.75 C 148.75 87.41 148.75 88.08 148.75 88.75 C 150.16 88.75 151.58 88.75 153.00 88.75 C 153.00 90.96 153.00 93.18 153.01 95.39 C 150.38 95.71 147.52 96.25 145.09 94.87 C 139.48 91.86 139.69 82.13 145.53 79.47 C 148.38 78.23 151.55 78.81 154.49 79.39 L 154.42 77.61 C 149.83 75.78 143.81 76.67 140.68 80.74 M 164.75 77.00 C 164.74 83.82 164.75 90.63 164.74 97.45 C 165.29 97.48 166.40 97.56 166.95 97.59 C 167.06 90.73 166.97 83.86 167.00 77.00 C 166.44 77.00 165.31 77.00 164.75 77.00 M 177.00 76.99 C 177.00 83.83 176.99 90.68 177.01 97.52 C 177.57 97.51 178.70 97.50 179.26 97.49 C 179.20 91.53 179.40 85.57 179.09 79.61 C 182.44 85.68 186.05 91.62 189.99 97.32 C 190.61 97.41 191.85 97.60 192.47 97.69 C 192.53 90.79 192.48 83.90 192.50 77.00 C 191.94 77.00 190.81 77.00 190.25 77.00 C 190.30 82.91 190.11 88.82 190.40 94.73 C 187.41 88.51 183.36 82.90 179.77 77.02 C 179.08 77.01 177.69 77.00 177.00 76.99 M 202.25 77.00 C 202.25 83.84 202.24 90.68 202.26 97.51 L 204.50 97.49 C 204.50 91.55 204.49 85.62 204.50 79.69 C 207.72 85.77 211.42 91.60 215.23 97.31 C 215.85 97.41 217.09 97.60 217.71 97.70 C 217.79 90.80 217.73 83.90 217.75 77.00 C 217.19 77.00 216.06 77.00 215.50 77.00 C 215.61 82.86 215.19 88.75 215.88 94.59 C 212.49 88.59 208.72 82.83 205.06 77.00 C 204.36 77.00 202.95 77.00 202.25 77.00 M 227.75 77.00 C 227.75 83.82 227.75 90.65 227.74 97.47 C 228.30 97.49 229.42 97.53 229.98 97.55 C 230.03 90.70 229.99 83.85 230.00 77.00 C 229.44 77.00 228.31 77.00 227.75 77.00 M 240.00 77.00 C 240.00 83.84 239.99 90.68 240.01 97.52 C 240.57 97.51 241.70 97.49 242.26 97.49 C 242.22 91.52 242.36 85.56 242.08 79.59 C 245.39 85.68 249.00 91.64 252.95 97.33 C 253.58 97.42 254.84 97.59 255.47 97.68 C 255.53 90.79 255.48 83.89 255.50 77.00 C 254.88 77.00 253.63 77.00 253.01 77.00 C 252.89 82.91 253.08 88.81 253.37 94.71 C 250.33 88.50 246.30 82.87 242.70 76.99 C 242.03 77.00 240.68 77.00 240.00 77.00 M 267.94 79.03 C 262.89 82.83 262.72 91.36 267.44 95.48 C 271.25 98.56 276.54 98.03 280.94 96.70 C 281.03 93.38 280.99 90.06 281.01 86.75 C 278.76 86.75 276.51 86.75 274.27 86.75 L 274.23 88.74 C 275.65 88.74 277.07 88.75 278.50 88.76 C 278.50 90.97 278.50 93.19 278.51 95.41 C 275.83 95.76 272.92 96.19 270.47 94.77 C 265.96 92.22 265.58 85.44 268.40 81.52 C 271.22 77.98 276.26 78.57 280.20 79.35 C 280.07 78.87 279.82 77.89 279.70 77.41 C 275.81 76.19 271.25 76.50 267.94 79.03 M 292.51 77.48 C 289.94 78.68 288.70 82.23 290.32 84.66 C 291.92 87.31 295.35 87.60 297.70 89.30 C 299.66 90.69 299.59 94.33 297.24 95.29 C 294.88 96.40 292.15 95.53 289.77 94.91 C 289.55 95.52 289.33 96.13 289.12 96.74 C 292.37 97.88 296.41 98.64 299.37 96.37 C 302.47 94.23 302.23 88.83 298.71 87.21 C 296.22 85.62 291.49 85.08 292.07 81.12 C 293.21 77.76 297.33 78.40 299.98 79.26 L 300.72 77.43 C 298.06 76.71 295.06 75.99 292.51 77.48 Z"></path><path fill="#f4f4f4" opacity="1.00" d=" M 100.25 78.69 C 102.33 78.71 104.67 78.22 106.48 79.56 C 107.98 80.77 107.82 83.19 106.65 84.58 C 104.88 86.12 102.41 85.64 100.28 85.83 C 100.24 83.45 100.25 81.07 100.25 78.69 Z"></path><path fill="#f4f4f4" opacity="1.00" d=" M 100.27 87.42 C 102.34 87.58 104.63 87.30 106.48 88.45 C 108.93 89.84 108.78 94.08 106.16 95.19 C 104.33 96.07 102.22 95.67 100.26 95.78 C 100.25 92.99 100.25 90.20 100.27 87.42 Z"></path></g></svg> 